<svg width="936" height="854" viewBox="0 0 702 640.5" xmlns="http://www.w3.org/2000/svg" xmlns:xlink="http://www.w3.org/1999/xlink">
<g id="graph0" class="graph" transform="translate(87.80472691031761,109.24077902814219) scale(0.16471820345351484)">
<title>checklists_app</title>
<polygon fill="#ffffff" stroke="transparent" points="-4,4 -4,-553.38 2090.39,-553.38 2090.39,4 -4,4"/>
<!-- N15 -->
<g id="node1" class="node node">
<title>N15</title>
<ellipse fill="#ff00ff" stroke="#000000" cx="430.04" cy="-372.9" rx="28.22" ry="17.57"/>
<text text-anchor="middle" x="430.04" y="-368.7" font-family="Times,serif" font-size="14.00">N15</text>
<text text-anchor="middle" x="373.48" y="-394.63" font-family="Times,serif" font-size="14.00">input path</text>
</g>
<!-- N16 -->
<g id="node26" class="node node">
<title>N16</title>
<ellipse fill="#ff00ff" stroke="#000000" cx="430.04" cy="-301.83" rx="28.22" ry="17.57"/>
<text text-anchor="middle" x="430.04" y="-297.63" font-family="Times,serif" font-size="14.00">N16</text>
</g>
<!-- N15&#45;&gt;N16 -->
<g id="E8" class="edge edge">
<title>N15-&gt;N16</title>
<path fill="none" stroke="#a0a0a4" d="M430.04,-355.18C430.04,-347.46 430.04,-338.1 430.04,-329.45"/>
<polygon fill="#a0a0a4" stroke="#a0a0a4" points="433.54,-329.39 430.04,-319.39 426.54,-329.39 433.54,-329.39"/>
</g>
<!-- N1 -->
<g id="node2" class="node node">
<title>N1</title>
<ellipse fill="#ff00ff" stroke="#000000" cx="430.04" cy="-443.97" rx="23.32" ry="17.57"/>
<text text-anchor="middle" x="430.04" y="-439.77" font-family="Times,serif" font-size="14.00">N1</text>
<text text-anchor="middle" x="376.88" y="-465.71" font-family="Times,serif" font-size="14.00">import file</text>
</g>
<!-- N1&#45;&gt;N15 -->
<g id="E7" class="edge edge">
<title>N1-&gt;N15</title>
<path fill="none" stroke="#a0a0a4" d="M430.04,-426.25C430.04,-418.53 430.04,-409.17 430.04,-400.52"/>
<polygon fill="#a0a0a4" stroke="#a0a0a4" points="433.54,-400.47 430.04,-390.47 426.54,-400.47 433.54,-400.47"/>
</g>
<!-- N50 -->
<g id="node3" class="node node">
<title>N50</title>
<ellipse fill="#ff00ff" stroke="#000000" cx="1563.04" cy="-88.61" rx="28.22" ry="17.57"/>
<text text-anchor="middle" x="1563.04" y="-84.41" font-family="Times,serif" font-size="14.00">N50</text>
<text text-anchor="middle" x="1518.73" y="-110.34" font-family="Times,serif" font-size="14.00">status</text>
</g>
<!-- N44 -->
<g id="node32" class="node node">
<title>N44</title>
<ellipse fill="#ff00ff" stroke="#000000" cx="1488.04" cy="-17.54" rx="28.22" ry="17.57"/>
<text text-anchor="middle" x="1488.04" y="-13.34" font-family="Times,serif" font-size="14.00">N44</text>
<text text-anchor="middle" x="1414.78" y="-39.27" font-family="Times,serif" font-size="14.00">read description</text>
</g>
<!-- N50&#45;&gt;N44 -->
<g id="E56" class="edge edge">
<title>N50-&gt;N44</title>
<path fill="none" stroke="#a0a0a4" d="M1547.86,-73.63C1537.18,-63.8 1522.72,-50.48 1510.68,-39.39"/>
<polygon fill="#a0a0a4" stroke="#a0a0a4" points="1512.92,-36.69 1503.19,-32.49 1508.17,-41.84 1512.92,-36.69"/>
</g>
<!-- N35 -->
<g id="node4" class="node node">
<title>N35</title>
<ellipse fill="#ff00ff" stroke="#000000" cx="701.04" cy="-159.68" rx="28.22" ry="17.57"/>
<text text-anchor="middle" x="701.04" y="-155.48" font-family="Times,serif" font-size="14.00">N35</text>
<text text-anchor="middle" x="630.11" y="-181.42" font-family="Times,serif" font-size="14.00">select checklist</text>
</g>
<!-- N38 -->
<g id="node17" class="node node">
<title>N38</title>
<ellipse fill="#ff00ff" stroke="#000000" cx="626.04" cy="-88.61" rx="28.22" ry="17.57"/>
<text text-anchor="middle" x="626.04" y="-84.41" font-family="Times,serif" font-size="14.00">N38</text>
<text text-anchor="middle" x="559.39" y="-110.34" font-family="Times,serif" font-size="14.00">delete marker</text>
</g>
<!-- N35&#45;&gt;N38 -->
<g id="E33" class="edge edge">
<title>N35-&gt;N38</title>
<path fill="none" stroke="#a0a0a4" d="M685.86,-144.7C675.18,-134.87 660.72,-121.55 648.68,-110.47"/>
<polygon fill="#a0a0a4" stroke="#a0a0a4" points="650.92,-107.77 641.19,-103.57 646.17,-112.91 650.92,-107.77"/>
</g>
<!-- N36 -->
<g id="node23" class="node node">
<title>N36</title>
<ellipse fill="#ff00ff" stroke="#000000" cx="701.04" cy="-88.61" rx="28.22" ry="17.57"/>
<text text-anchor="middle" x="701.04" y="-84.41" font-family="Times,serif" font-size="14.00">N36</text>
<text text-anchor="middle" x="635.94" y="-110.34" font-family="Times,serif" font-size="14.00">change name</text>
</g>
<!-- N35&#45;&gt;N36 -->
<g id="E31" class="edge edge">
<title>N35-&gt;N36</title>
<path fill="none" stroke="#a0a0a4" d="M701.04,-141.96C701.04,-134.24 701.04,-124.88 701.04,-116.23"/>
<polygon fill="#a0a0a4" stroke="#a0a0a4" points="704.54,-116.18 701.04,-106.18 697.54,-116.18 704.54,-116.18"/>
</g>
<!-- N37 -->
<g id="node42" class="node node">
<title>N37</title>
<ellipse fill="#ff00ff" stroke="#000000" cx="551.04" cy="-88.61" rx="28.22" ry="17.57"/>
<text text-anchor="middle" x="551.04" y="-84.41" font-family="Times,serif" font-size="14.00">N37</text>
<text text-anchor="middle" x="491" y="-58.47" font-family="Times,serif" font-size="14.00">add marker</text>
</g>
<!-- N35&#45;&gt;N37 -->
<g id="E32" class="edge edge">
<title>N35-&gt;N37</title>
<path fill="none" stroke="#a0a0a4" d="M678.9,-148.49C653.42,-136.76 611.38,-117.4 582.5,-104.1"/>
<polygon fill="#a0a0a4" stroke="#a0a0a4" points="583.81,-100.85 573.26,-99.84 580.88,-107.2 583.81,-100.85"/>
</g>
<!-- N29 -->
<g id="node57" class="node node">
<title>N29</title>
<ellipse fill="#ff00ff" stroke="#000000" cx="692.04" cy="-17.54" rx="28.22" ry="17.57"/>
<text text-anchor="middle" x="692.04" y="-13.34" font-family="Times,serif" font-size="14.00">N29</text>
<text text-anchor="middle" x="608.47" y="-39.27" font-family="Times,serif" font-size="14.00">arrange lines dialog</text>
</g>
<!-- N35&#45;&gt;N29 -->
<g id="E34" class="edge edge">
<title>N35-&gt;N29</title>
<path fill="none" stroke="#a0a0a4" d="M728.2,-154.4C754.97,-148.58 794.49,-135.33 813.04,-106.14 821.4,-92.99 821.59,-84.11 813.04,-71.07 794.69,-43.1 757.89,-29.95 729.66,-23.81"/>
<polygon fill="#a0a0a4" stroke="#a0a0a4" points="730.19,-20.34 719.7,-21.85 728.84,-27.21 730.19,-20.34"/>
</g>
<!-- N58 -->
<g id="node5" class="node node">
<title>N58</title>
<ellipse fill="#ff00ff" stroke="#000000" cx="1109.04" cy="-515.04" rx="28.22" ry="17.57"/>
<text text-anchor="middle" x="1109.04" y="-510.84" font-family="Times,serif" font-size="14.00">N58</text>
</g>
<!-- N55 -->
<g id="node14" class="node node">
<title>N55</title>
<ellipse fill="#ff00ff" stroke="#000000" cx="1109.04" cy="-443.97" rx="28.22" ry="17.57"/>
<text text-anchor="middle" x="1109.04" y="-439.77" font-family="Times,serif" font-size="14.00">N55</text>
<text text-anchor="middle" x="1037.32" y="-465.71" font-family="Times,serif" font-size="14.00">print completes</text>
</g>
<!-- N58&#45;&gt;N55 -->
<g id="E61" class="edge edge">
<title>N58-&gt;N55</title>
<path fill="none" stroke="#a0a0a4" d="M1109.04,-497.32C1109.04,-489.6 1109.04,-480.25 1109.04,-471.59"/>
<polygon fill="#a0a0a4" stroke="#a0a0a4" points="1112.54,-471.54 1109.04,-461.54 1105.54,-471.54 1112.54,-471.54"/>
</g>
<!-- N31 -->
<g id="node6" class="node node">
<title>N31</title>
<ellipse fill="#ff00ff" stroke="#000000" cx="101.04" cy="-88.61" rx="28.22" ry="17.57"/>
<text text-anchor="middle" x="101.04" y="-84.41" font-family="Times,serif" font-size="14.00">N31</text>
<text text-anchor="middle" x="36.34" y="-110.34" font-family="Times,serif" font-size="14.00">markers read</text>
</g>
<!-- N30 -->
<g id="node11" class="node node">
<title>N30</title>
<ellipse fill="#ff00ff" stroke="#000000" cx="476.04" cy="-17.54" rx="28.22" ry="17.57"/>
<text text-anchor="middle" x="476.04" y="-13.34" font-family="Times,serif" font-size="14.00">N30</text>
<text text-anchor="middle" x="414.06" y="-39.27" font-family="Times,serif" font-size="14.00">read merker</text>
</g>
<!-- N31&#45;&gt;N30 -->
<g id="E23" class="edge edge">
<title>N31-&gt;N30</title>
<path fill="none" stroke="#a0a0a4" d="M122.78,-77.01C128.01,-74.78 133.65,-72.64 139.04,-71.07 244.67,-40.41 374.43,-26.58 437.7,-21.31"/>
<polygon fill="#a0a0a4" stroke="#a0a0a4" points="438.31,-24.77 447.99,-20.47 437.74,-17.79 438.31,-24.77"/>
</g>
<!-- N21 -->
<g id="node7" class="node node">
<title>N21</title>
<ellipse fill="#ff00ff" stroke="#000000" cx="251.04" cy="-88.61" rx="28.22" ry="17.57"/>
<text text-anchor="middle" x="251.04" y="-84.41" font-family="Times,serif" font-size="14.00">N21</text>
<text text-anchor="middle" x="186.32" y="-110.34" font-family="Times,serif" font-size="14.00">previous line</text>
</g>
<!-- N7 -->
<g id="node8" class="node node">
<title>N7</title>
<ellipse fill="#ff00ff" stroke="#000000" cx="1633.04" cy="-88.61" rx="23.32" ry="17.57"/>
<text text-anchor="middle" x="1633.04" y="-84.41" font-family="Times,serif" font-size="14.00">N7</text>
<text text-anchor="middle" x="1567.06" y="-58.47" font-family="Times,serif" font-size="14.00">select checklist</text>
</g>
<!-- N18 -->
<g id="node9" class="node node">
<title>N18</title>
<ellipse fill="#ff00ff" stroke="#000000" cx="1691.04" cy="-515.04" rx="28.22" ry="17.57"/>
<text text-anchor="middle" x="1691.04" y="-510.84" font-family="Times,serif" font-size="14.00">N18</text>
</g>
<!-- N14 -->
<g id="node54" class="node node">
<title>N14</title>
<ellipse fill="#ff00ff" stroke="#000000" cx="1691.04" cy="-443.97" rx="28.22" ry="17.57"/>
<text text-anchor="middle" x="1691.04" y="-439.77" font-family="Times,serif" font-size="14.00">N14</text>
<text text-anchor="middle" x="1640.32" y="-465.71" font-family="Times,serif" font-size="14.00">files list</text>
</g>
<!-- N18&#45;&gt;N14 -->
<g id="E5" class="edge edge">
<title>N18-&gt;N14</title>
<path fill="none" stroke="#a0a0a4" d="M1691.04,-497.32C1691.04,-489.6 1691.04,-480.25 1691.04,-471.59"/>
<polygon fill="#a0a0a4" stroke="#a0a0a4" points="1694.54,-471.54 1691.04,-461.54 1687.54,-471.54 1694.54,-471.54"/>
</g>
<!-- N32 -->
<g id="node10" class="node node">
<title>N32</title>
<ellipse fill="#ff00ff" stroke="#000000" cx="1579.04" cy="-230.75" rx="28.22" ry="17.57"/>
<text text-anchor="middle" x="1579.04" y="-226.55" font-family="Times,serif" font-size="14.00">N32</text>
<text text-anchor="middle" x="1506.17" y="-252.49" font-family="Times,serif" font-size="14.00">search checklist</text>
</g>
<!-- N45 -->
<g id="node12" class="node node">
<title>N45</title>
<ellipse fill="#ff00ff" stroke="#000000" cx="1188.04" cy="-88.61" rx="28.22" ry="17.57"/>
<text text-anchor="middle" x="1188.04" y="-84.41" font-family="Times,serif" font-size="14.00">N45</text>
<text text-anchor="middle" x="1128.19" y="-110.34" font-family="Times,serif" font-size="14.00">importance</text>
</g>
<!-- N45&#45;&gt;N44 -->
<g id="E51" class="edge edge">
<title>N45-&gt;N44</title>
<path fill="none" stroke="#a0a0a4" d="M1209.84,-77.18C1215.06,-74.94 1220.68,-72.75 1226.04,-71.07 1304.09,-46.57 1398.94,-30.89 1450.4,-23.51"/>
<polygon fill="#a0a0a4" stroke="#a0a0a4" points="1450.98,-26.97 1460.4,-22.1 1450.01,-20.03 1450.98,-26.97"/>
</g>
<!-- N39 -->
<g id="node13" class="node node">
<title>N39</title>
<ellipse fill="#ff00ff" stroke="#000000" cx="1703.04" cy="-88.61" rx="28.22" ry="17.57"/>
<text text-anchor="middle" x="1703.04" y="-84.41" font-family="Times,serif" font-size="14.00">N39</text>
<text text-anchor="middle" x="1637.94" y="-110.34" font-family="Times,serif" font-size="14.00">add checklist</text>
</g>
<!-- N27 -->
<g id="node15" class="node node">
<title>N27</title>
<ellipse fill="#ff00ff" stroke="#000000" cx="1263.04" cy="-88.61" rx="28.22" ry="17.57"/>
<text text-anchor="middle" x="1263.04" y="-84.41" font-family="Times,serif" font-size="14.00">N27</text>
<text text-anchor="middle" x="1194.82" y="-58.47" font-family="Times,serif" font-size="14.00">print checklist</text>
</g>
<!-- N10 -->
<g id="node16" class="node node">
<title>N10</title>
<ellipse fill="#ff00ff" stroke="#000000" cx="1504.04" cy="-230.75" rx="28.22" ry="17.57"/>
<text text-anchor="middle" x="1504.04" y="-226.55" font-family="Times,serif" font-size="14.00">N10</text>
<text text-anchor="middle" x="1444.38" y="-217.42" font-family="Times,serif" font-size="14.00">start dialog</text>
</g>
<!-- N9 -->
<g id="node45" class="node node">
<title>N9</title>
<ellipse fill="#ff00ff" stroke="#000000" cx="1668.04" cy="-159.68" rx="23.32" ry="17.57"/>
<text text-anchor="middle" x="1668.04" y="-155.48" font-family="Times,serif" font-size="14.00">N9</text>
<text text-anchor="middle" x="1611.38" y="-181.42" font-family="Times,serif" font-size="14.00">tasks dialog</text>
</g>
<!-- N10&#45;&gt;N9 -->
<g id="E3" class="edge edge">
<title>N10-&gt;N9</title>
<path fill="none" stroke="#a0a0a4" d="M1526.52,-219.9C1531.61,-217.69 1537,-215.36 1542.04,-213.22 1574.95,-199.19 1612.86,-183.44 1638.43,-172.87"/>
<polygon fill="#a0a0a4" stroke="#a0a0a4" points="1640.01,-176.01 1647.92,-168.96 1637.34,-169.54 1640.01,-176.01"/>
</g>
<!-- N54 -->
<g id="node18" class="node node">
<title>N54</title>
<ellipse fill="#ff00ff" stroke="#000000" cx="1778.04" cy="-88.61" rx="28.22" ry="17.57"/>
<text text-anchor="middle" x="1778.04" y="-84.41" font-family="Times,serif" font-size="14.00">N54</text>
<text text-anchor="middle" x="1710.99" y="-58.47" font-family="Times,serif" font-size="14.00">print schemas</text>
</g>
<!-- N4 -->
<g id="node19" class="node node">
<title>N4</title>
<ellipse fill="#ff00ff" stroke="#000000" cx="1263.04" cy="-301.83" rx="23.32" ry="17.57"/>
<text text-anchor="middle" x="1263.04" y="-297.63" font-family="Times,serif" font-size="14.00">N4</text>
<text text-anchor="middle" x="1212.02" y="-323.56" font-family="Times,serif" font-size="14.00">checklists</text>
</g>
<!-- N4&#45;&gt;N35 -->
<g id="E29" class="edge edge">
<title>N4-&gt;N35</title>
<path fill="none" stroke="#a0a0a4" d="M1240.56,-296.84C1195.72,-288.76 1092.06,-269.4 1006.04,-248.29 907.06,-224 791.87,-189.07 735.57,-171.56"/>
<polygon fill="#a0a0a4" stroke="#a0a0a4" points="736.35,-168.13 725.77,-168.5 734.27,-174.82 736.35,-168.13"/>
</g>
<!-- N4&#45;&gt;N32 -->
<g id="E27" class="edge edge">
<title>N4-&gt;N32</title>
<path fill="none" stroke="#a0a0a4" d="M1286.16,-298.23C1334.36,-292.44 1448.79,-276.68 1541.04,-248.29 1543.3,-247.59 1545.61,-246.8 1547.91,-245.95"/>
<polygon fill="#a0a0a4" stroke="#a0a0a4" points="1549.26,-249.18 1557.25,-242.23 1546.66,-242.68 1549.26,-249.18"/>
</g>
<!-- N4&#45;&gt;N27 -->
<g id="E25" class="edge edge">
<title>N4-&gt;N27</title>
<path fill="none" stroke="#a0a0a4" d="M1263.04,-284.25C1263.04,-247.87 1263.04,-160.72 1263.04,-116.43"/>
<polygon fill="#a0a0a4" stroke="#a0a0a4" points="1266.54,-116.4 1263.04,-106.4 1259.54,-116.4 1266.54,-116.4"/>
</g>
<!-- N19 -->
<g id="node30" class="node node">
<title>N19</title>
<ellipse fill="#ff00ff" stroke="#000000" cx="430.04" cy="-230.75" rx="28.22" ry="17.57"/>
<text text-anchor="middle" x="430.04" y="-226.55" font-family="Times,serif" font-size="14.00">N19</text>
<text text-anchor="middle" x="341.03" y="-252.49" font-family="Times,serif" font-size="14.00">new checklist dialoge</text>
</g>
<!-- N4&#45;&gt;N19 -->
<g id="E24" class="edge edge">
<title>N4-&gt;N19</title>
<path fill="none" stroke="#a0a0a4" d="M1239.89,-298.91C1124.66,-289.35 612.72,-246.9 468.16,-234.92"/>
<polygon fill="#a0a0a4" stroke="#a0a0a4" points="468.27,-231.41 458.01,-234.07 467.69,-238.39 468.27,-231.41"/>
</g>
<!-- N34 -->
<g id="node35" class="node node">
<title>N34</title>
<ellipse fill="#ff00ff" stroke="#000000" cx="1338.04" cy="-88.61" rx="28.22" ry="17.57"/>
<text text-anchor="middle" x="1338.04" y="-84.41" font-family="Times,serif" font-size="14.00">N34</text>
<text text-anchor="middle" x="1240.09" y="-110.34" font-family="Times,serif" font-size="14.00">arrange checklists dialog</text>
</g>
<!-- N4&#45;&gt;N34 -->
<g id="E28" class="edge edge">
<title>N4-&gt;N34</title>
<path fill="none" stroke="#a0a0a4" d="M1268.8,-284.6C1281.75,-248.13 1313.25,-159.4 1328.9,-115.33"/>
<polygon fill="#a0a0a4" stroke="#a0a0a4" points="1332.21,-116.48 1332.25,-105.89 1325.61,-114.14 1332.21,-116.48"/>
</g>
<!-- N6 -->
<g id="node20" class="node node">
<title>N6</title>
<ellipse fill="#ff00ff" stroke="#000000" cx="1038.04" cy="-159.68" rx="23.32" ry="17.57"/>
<text text-anchor="middle" x="1038.04" y="-155.48" font-family="Times,serif" font-size="14.00">N6</text>
<text text-anchor="middle" x="970.5" y="-181.42" font-family="Times,serif" font-size="14.00">checklist dialog</text>
</g>
<!-- N6&#45;&gt;N45 -->
<g id="E47" class="edge edge">
<title>N6-&gt;N45</title>
<path fill="none" stroke="#a0a0a4" d="M1057.64,-149.65C1082.87,-138.04 1126.98,-117.72 1156.83,-103.98"/>
<polygon fill="#a0a0a4" stroke="#a0a0a4" points="1158.36,-107.13 1165.98,-99.76 1155.44,-100.77 1158.36,-107.13"/>
</g>
<!-- N6&#45;&gt;N27 -->
<g id="E42" class="edge edge">
<title>N6-&gt;N27</title>
<path fill="none" stroke="#a0a0a4" d="M1060.22,-153.49C1095.55,-145 1166.58,-126.96 1225.04,-106.14 1227.13,-105.4 1229.27,-104.59 1231.41,-103.75"/>
<polygon fill="#a0a0a4" stroke="#a0a0a4" points="1232.82,-106.96 1240.73,-99.92 1230.15,-100.49 1232.82,-106.96"/>
</g>
<!-- N46 -->
<g id="node25" class="node node">
<title>N46</title>
<ellipse fill="#ff00ff" stroke="#000000" cx="1113.04" cy="-88.61" rx="28.22" ry="17.57"/>
<text text-anchor="middle" x="1113.04" y="-84.41" font-family="Times,serif" font-size="14.00">N46</text>
<text text-anchor="middle" x="1060.76" y="-110.34" font-family="Times,serif" font-size="14.00">skip line</text>
</g>
<!-- N6&#45;&gt;N46 -->
<g id="E48" class="edge edge">
<title>N6-&gt;N46</title>
<path fill="none" stroke="#a0a0a4" d="M1052.5,-145.36C1063.18,-135.52 1077.94,-121.93 1090.21,-110.63"/>
<polygon fill="#a0a0a4" stroke="#a0a0a4" points="1092.86,-112.95 1097.85,-103.6 1088.12,-107.8 1092.86,-112.95"/>
</g>
<!-- N43 -->
<g id="node51" class="node node">
<title>N43</title>
<ellipse fill="#ff00ff" stroke="#000000" cx="776.04" cy="-88.61" rx="28.22" ry="17.57"/>
<text text-anchor="middle" x="776.04" y="-84.41" font-family="Times,serif" font-size="14.00">N43</text>
<text text-anchor="middle" x="716" y="-110.34" font-family="Times,serif" font-size="14.00">add marker</text>
</g>
<!-- N6&#45;&gt;N43 -->
<g id="E45" class="edge edge">
<title>N6-&gt;N43</title>
<path fill="none" stroke="#a0a0a4" d="M1016.15,-152.91C970.88,-140.98 866.6,-113.48 811.55,-98.97"/>
<polygon fill="#a0a0a4" stroke="#a0a0a4" points="812.43,-95.58 801.87,-96.42 810.65,-102.35 812.43,-95.58"/>
</g>
<!-- N40 -->
<g id="node53" class="node node">
<title>N40</title>
<ellipse fill="#ff00ff" stroke="#000000" cx="888.04" cy="-88.61" rx="28.22" ry="17.57"/>
<text text-anchor="middle" x="888.04" y="-84.41" font-family="Times,serif" font-size="14.00">N40</text>
</g>
<!-- N6&#45;&gt;N40 -->
<g id="E44" class="edge edge">
<title>N6-&gt;N40</title>
<path fill="none" stroke="#a0a0a4" d="M1018.43,-149.65C993.2,-138.04 949.09,-117.72 919.24,-103.98"/>
<polygon fill="#a0a0a4" stroke="#a0a0a4" points="920.63,-100.77 910.09,-99.76 917.71,-107.13 920.63,-100.77"/>
</g>
<!-- N48 -->
<g id="node55" class="node node">
<title>N48</title>
<ellipse fill="#ff00ff" stroke="#000000" cx="963.04" cy="-88.61" rx="28.22" ry="17.57"/>
<text text-anchor="middle" x="963.04" y="-84.41" font-family="Times,serif" font-size="14.00">N48</text>
<text text-anchor="middle" x="904.73" y="-110.34" font-family="Times,serif" font-size="14.00">incomplite</text>
</g>
<!-- N6&#45;&gt;N48 -->
<g id="E46" class="edge edge">
<title>N6-&gt;N48</title>
<path fill="none" stroke="#a0a0a4" d="M1023.57,-145.36C1012.89,-135.52 998.13,-121.93 985.86,-110.63"/>
<polygon fill="#a0a0a4" stroke="#a0a0a4" points="987.95,-107.8 978.22,-103.6 983.21,-112.95 987.95,-107.8"/>
</g>
<!-- N49 -->
<g id="node56" class="node node">
<title>N49</title>
<ellipse fill="#ff00ff" stroke="#000000" cx="1038.04" cy="-88.61" rx="28.22" ry="17.57"/>
<text text-anchor="middle" x="1038.04" y="-84.41" font-family="Times,serif" font-size="14.00">N49</text>
<text text-anchor="middle" x="989.26" y="-110.34" font-family="Times,serif" font-size="14.00">skip all</text>
</g>
<!-- N6&#45;&gt;N49 -->
<g id="E49" class="edge edge">
<title>N6-&gt;N49</title>
<path fill="none" stroke="#a0a0a4" d="M1038.04,-141.96C1038.04,-134.24 1038.04,-124.88 1038.04,-116.23"/>
<polygon fill="#a0a0a4" stroke="#a0a0a4" points="1041.54,-116.18 1038.04,-106.18 1034.54,-116.18 1041.54,-116.18"/>
</g>
<!-- N24 -->
<g id="node21" class="node node">
<title>N24</title>
<ellipse fill="#ff00ff" stroke="#000000" cx="177.04" cy="-159.68" rx="28.22" ry="17.57"/>
<text text-anchor="middle" x="177.04" y="-155.48" font-family="Times,serif" font-size="14.00">N24</text>
<text text-anchor="middle" x="133.52" y="-181.42" font-family="Times,serif" font-size="14.00">name</text>
</g>
<!-- N24&#45;&gt;N31 -->
<g id="E22" class="edge edge">
<title>N24-&gt;N31</title>
<path fill="none" stroke="#a0a0a4" d="M161.66,-144.7C150.84,-134.87 136.18,-121.55 123.98,-110.47"/>
<polygon fill="#a0a0a4" stroke="#a0a0a4" points="126.15,-107.7 116.39,-103.57 121.44,-112.88 126.15,-107.7"/>
</g>
<!-- N23 -->
<g id="node22" class="node node">
<title>N23</title>
<ellipse fill="#ff00ff" stroke="#000000" cx="326.04" cy="-88.61" rx="28.22" ry="17.57"/>
<text text-anchor="middle" x="326.04" y="-84.41" font-family="Times,serif" font-size="14.00">N23</text>
<text text-anchor="middle" x="241.49" y="-58.47" font-family="Times,serif" font-size="14.00">add line to checklist</text>
</g>
<!-- N5 -->
<g id="node24" class="node node">
<title>N5</title>
<ellipse fill="#ff00ff" stroke="#000000" cx="1848.04" cy="-88.61" rx="23.32" ry="17.57"/>
<text text-anchor="middle" x="1848.04" y="-84.41" font-family="Times,serif" font-size="14.00">N5</text>
<text text-anchor="middle" x="1781.28" y="-110.34" font-family="Times,serif" font-size="14.00">delete checklist</text>
</g>
<!-- N47 -->
<g id="node44" class="node node">
<title>N47</title>
<ellipse fill="#ff00ff" stroke="#000000" cx="1113.04" cy="-17.54" rx="28.22" ry="17.57"/>
<text text-anchor="middle" x="1113.04" y="-13.34" font-family="Times,serif" font-size="14.00">N47</text>
<text text-anchor="middle" x="1056.49" y="-39.27" font-family="Times,serif" font-size="14.00">select line</text>
</g>
<!-- N46&#45;&gt;N47 -->
<g id="E52" class="edge edge">
<title>N46-&gt;N47</title>
<path fill="none" stroke="#a0a0a4" d="M1113.04,-70.89C1113.04,-63.17 1113.04,-53.81 1113.04,-45.16"/>
<polygon fill="#a0a0a4" stroke="#a0a0a4" points="1116.54,-45.1 1113.04,-35.1 1109.54,-45.1 1116.54,-45.1"/>
</g>
<!-- N16&#45;&gt;N19 -->
<g id="E14" class="edge edge">
<title>N16-&gt;N19</title>
<path fill="none" stroke="#a0a0a4" d="M430.04,-284.11C430.04,-276.38 430.04,-267.03 430.04,-258.37"/>
<polygon fill="#a0a0a4" stroke="#a0a0a4" points="433.54,-258.32 430.04,-248.32 426.54,-258.32 433.54,-258.32"/>
</g>
<!-- N51 -->
<g id="node27" class="node node">
<title>N51</title>
<ellipse fill="#ff00ff" stroke="#000000" cx="1413.04" cy="-88.61" rx="28.22" ry="17.57"/>
<text text-anchor="middle" x="1413.04" y="-84.41" font-family="Times,serif" font-size="14.00">N51</text>
<text text-anchor="middle" x="1353" y="-110.34" font-family="Times,serif" font-size="14.00">add marker</text>
</g>
<!-- N51&#45;&gt;N30 -->
<g id="E53" class="edge edge">
<title>N51-&gt;N30</title>
<path fill="none" stroke="#a0a0a4" d="M1391.79,-76.77C1386.45,-74.49 1380.64,-72.39 1375.04,-71.07 1219.06,-34.52 814.83,-46.44 655.04,-35.07 606.3,-31.6 550.23,-26.19 514.03,-22.51"/>
<polygon fill="#a0a0a4" stroke="#a0a0a4" points="514.21,-19.02 503.91,-21.48 513.5,-25.98 514.21,-19.02"/>
</g>
<!-- N42 -->
<g id="node28" class="node node">
<title>N42</title>
<ellipse fill="#ff00ff" stroke="#000000" cx="1766.04" cy="-515.04" rx="28.22" ry="17.57"/>
<text text-anchor="middle" x="1766.04" y="-510.84" font-family="Times,serif" font-size="14.00">N42</text>
<text text-anchor="middle" x="1712.02" y="-536.78" font-family="Times,serif" font-size="14.00">complete</text>
</g>
<!-- N3 -->
<g id="node29" class="node node">
<title>N3</title>
<ellipse fill="#ff00ff" stroke="#000000" cx="1913.04" cy="-88.61" rx="23.32" ry="17.57"/>
<text text-anchor="middle" x="1913.04" y="-84.41" font-family="Times,serif" font-size="14.00">N3</text>
<text text-anchor="middle" x="1869.6" y="-110.34" font-family="Times,serif" font-size="14.00">find all</text>
</g>
<!-- N19&#45;&gt;N24 -->
<g id="E21" class="edge edge">
<title>N19-&gt;N24</title>
<path fill="none" stroke="#a0a0a4" d="M404.38,-222.75C358.81,-210.31 263.66,-184.33 212.08,-170.25"/>
<polygon fill="#a0a0a4" stroke="#a0a0a4" points="212.95,-166.86 202.38,-167.6 211.1,-173.61 212.95,-166.86"/>
</g>
<!-- N13 -->
<g id="node31" class="node node">
<title>N13</title>
<ellipse fill="#ff00ff" stroke="#000000" cx="1691.04" cy="-372.9" rx="28.22" ry="17.57"/>
<text text-anchor="middle" x="1691.04" y="-368.7" font-family="Times,serif" font-size="14.00">N13</text>
<text text-anchor="middle" x="1617.57" y="-394.63" font-family="Times,serif" font-size="14.00">skip added lines</text>
</g>
<!-- N17 -->
<g id="node58" class="node node">
<title>N17</title>
<ellipse fill="#ff00ff" stroke="#000000" cx="1691.04" cy="-301.83" rx="28.22" ry="17.57"/>
<text text-anchor="middle" x="1691.04" y="-297.63" font-family="Times,serif" font-size="14.00">N17</text>
<text text-anchor="middle" x="1634.1" y="-323.56" font-family="Times,serif" font-size="14.00">file dialog</text>
</g>
<!-- N13&#45;&gt;N17 -->
<g id="E20" class="edge edge">
<title>N13-&gt;N17</title>
<path fill="none" stroke="#a0a0a4" d="M1691.04,-355.18C1691.04,-347.46 1691.04,-338.1 1691.04,-329.45"/>
<polygon fill="#a0a0a4" stroke="#a0a0a4" points="1694.54,-329.39 1691.04,-319.39 1687.54,-329.39 1694.54,-329.39"/>
</g>
<!-- N11 -->
<g id="node33" class="node node">
<title>N11</title>
<ellipse fill="#ff00ff" stroke="#000000" cx="463.04" cy="-515.04" rx="28.22" ry="17.57"/>
<text text-anchor="middle" x="463.04" y="-510.84" font-family="Times,serif" font-size="14.00">N11</text>
</g>
<!-- N11&#45;&gt;N1 -->
<g id="E1" class="edge edge">
<title>N11-&gt;N1</title>
<path fill="none" stroke="#a0a0a4" d="M455.38,-498.02C451.42,-489.74 446.5,-479.44 442.05,-470.13"/>
<polygon fill="#a0a0a4" stroke="#a0a0a4" points="445.12,-468.42 437.65,-460.9 438.8,-471.44 445.12,-468.42"/>
</g>
<!-- N2 -->
<g id="node34" class="node node">
<title>N2</title>
<ellipse fill="#ff00ff" stroke="#000000" cx="495.04" cy="-443.97" rx="23.32" ry="17.57"/>
<text text-anchor="middle" x="495.04" y="-439.77" font-family="Times,serif" font-size="14.00">N2</text>
<text text-anchor="middle" x="444.61" y="-465.71" font-family="Times,serif" font-size="14.00">select file</text>
</g>
<!-- N11&#45;&gt;N2 -->
<g id="E2" class="edge edge">
<title>N11-&gt;N2</title>
<path fill="none" stroke="#a0a0a4" d="M470.46,-498.02C474.29,-489.74 479.07,-479.44 483.38,-470.13"/>
<polygon fill="#a0a0a4" stroke="#a0a0a4" points="486.63,-471.45 487.65,-460.9 480.27,-468.51 486.63,-471.45"/>
</g>
<!-- N26 -->
<g id="node36" class="node node">
<title>N26</title>
<ellipse fill="#ff00ff" stroke="#000000" cx="476.04" cy="-88.61" rx="28.22" ry="17.57"/>
<text text-anchor="middle" x="476.04" y="-84.41" font-family="Times,serif" font-size="14.00">N26</text>
<text text-anchor="middle" x="400.06" y="-110.34" font-family="Times,serif" font-size="14.00">arrange checklist</text>
</g>
<!-- N26&#45;&gt;N29 -->
<g id="E19" class="edge edge">
<title>N26-&gt;N29</title>
<path fill="none" stroke="#a0a0a4" d="M498.35,-77.35C503.46,-75.16 508.9,-72.94 514.04,-71.07 562.54,-53.44 620.04,-37.3 656.28,-27.69"/>
<polygon fill="#a0a0a4" stroke="#a0a0a4" points="657.58,-30.97 666.36,-25.04 655.8,-24.2 657.58,-30.97"/>
</g>
<!-- N28 -->
<g id="node37" class="node node">
<title>N28</title>
<ellipse fill="#ff00ff" stroke="#000000" cx="364.04" cy="-159.68" rx="28.22" ry="17.57"/>
<text text-anchor="middle" x="364.04" y="-155.48" font-family="Times,serif" font-size="14.00">N28</text>
</g>
<!-- N28&#45;&gt;N21 -->
<g id="E11" class="edge edge">
<title>N28-&gt;N21</title>
<path fill="none" stroke="#a0a0a4" d="M344.61,-146.81C326.58,-135.79 299.53,-119.25 279.15,-106.79"/>
<polygon fill="#a0a0a4" stroke="#a0a0a4" points="280.94,-103.79 270.59,-101.56 277.29,-109.76 280.94,-103.79"/>
</g>
<!-- N28&#45;&gt;N27 -->
<g id="E17" class="edge edge">
<title>N28-&gt;N27</title>
<path fill="none" stroke="#a0a0a4" d="M392.42,-157.09C539,-148.82 1204.31,-111.12 1225.04,-106.14 1227.48,-105.56 1229.97,-104.82 1232.45,-103.99"/>
<polygon fill="#a0a0a4" stroke="#a0a0a4" points="1233.7,-107.25 1241.78,-100.4 1231.19,-100.72 1233.7,-107.25"/>
</g>
<!-- N28&#45;&gt;N23 -->
<g id="E13" class="edge edge">
<title>N28-&gt;N23</title>
<path fill="none" stroke="#a0a0a4" d="M355.22,-142.66C350.62,-134.29 344.88,-123.86 339.71,-114.47"/>
<polygon fill="#a0a0a4" stroke="#a0a0a4" points="342.69,-112.62 334.8,-105.54 336.55,-115.99 342.69,-112.62"/>
</g>
<!-- N28&#45;&gt;N26 -->
<g id="E16" class="edge edge">
<title>N28-&gt;N26</title>
<path fill="none" stroke="#a0a0a4" d="M383.54,-146.65C401.37,-135.66 427.94,-119.27 448.03,-106.88"/>
<polygon fill="#a0a0a4" stroke="#a0a0a4" points="450.08,-109.73 456.75,-101.5 446.4,-103.77 450.08,-109.73"/>
</g>
<!-- N25 -->
<g id="node41" class="node node">
<title>N25</title>
<ellipse fill="#ff00ff" stroke="#000000" cx="176.04" cy="-88.61" rx="28.22" ry="17.57"/>
<text text-anchor="middle" x="176.04" y="-84.41" font-family="Times,serif" font-size="14.00">N25</text>
<text text-anchor="middle" x="82.17" y="-58.47" font-family="Times,serif" font-size="14.00">add marker to checklist</text>
</g>
<!-- N28&#45;&gt;N25 -->
<g id="E15" class="edge edge">
<title>N28-&gt;N25</title>
<path fill="none" stroke="#a0a0a4" d="M339.41,-150.68C309.52,-140.82 257.71,-123.27 214.04,-106.14 211.97,-105.33 209.84,-104.48 207.71,-103.6"/>
<polygon fill="#a0a0a4" stroke="#a0a0a4" points="209,-100.34 198.43,-99.68 206.28,-106.79 209,-100.34"/>
</g>
<!-- N22 -->
<g id="node50" class="node node">
<title>N22</title>
<ellipse fill="#ff00ff" stroke="#000000" cx="401.04" cy="-88.61" rx="28.22" ry="17.57"/>
<text text-anchor="middle" x="401.04" y="-84.41" font-family="Times,serif" font-size="14.00">N22</text>
<text text-anchor="middle" x="339.25" y="-58.47" font-family="Times,serif" font-size="14.00">add  marker</text>
</g>
<!-- N28&#45;&gt;N22 -->
<g id="E12" class="edge edge">
<title>N28-&gt;N22</title>
<path fill="none" stroke="#a0a0a4" d="M372.62,-142.66C377.1,-134.29 382.69,-123.86 387.72,-114.47"/>
<polygon fill="#a0a0a4" stroke="#a0a0a4" points="390.86,-116.01 392.5,-105.54 384.69,-112.7 390.86,-116.01"/>
</g>
<!-- N41 -->
<g id="node38" class="node node">
<title>N41</title>
<ellipse fill="#ff00ff" stroke="#000000" cx="1488.04" cy="-88.61" rx="28.22" ry="17.57"/>
<text text-anchor="middle" x="1488.04" y="-84.41" font-family="Times,serif" font-size="14.00">N41</text>
</g>
<!-- N41&#45;&gt;N44 -->
<g id="E50" class="edge edge">
<title>N41-&gt;N44</title>
<path fill="none" stroke="#a0a0a4" d="M1488.04,-70.89C1488.04,-63.17 1488.04,-53.81 1488.04,-45.16"/>
<polygon fill="#a0a0a4" stroke="#a0a0a4" points="1491.54,-45.1 1488.04,-35.1 1484.54,-45.1 1491.54,-45.1"/>
</g>
<!-- N20 -->
<g id="node39" class="node node">
<title>N20</title>
<ellipse fill="#ff00ff" stroke="#000000" cx="1654.04" cy="-230.75" rx="28.22" ry="17.57"/>
<text text-anchor="middle" x="1654.04" y="-226.55" font-family="Times,serif" font-size="14.00">N20</text>
<text text-anchor="middle" x="1601.37" y="-252.49" font-family="Times,serif" font-size="14.00">next line</text>
</g>
<!-- N8 -->
<g id="node40" class="node node">
<title>N8</title>
<ellipse fill="#ff00ff" stroke="#000000" cx="1038.04" cy="-230.75" rx="23.32" ry="17.57"/>
<text text-anchor="middle" x="1038.04" y="-226.55" font-family="Times,serif" font-size="14.00">N8</text>
</g>
<!-- N8&#45;&gt;N6 -->
<g id="E41" class="edge edge">
<title>N8-&gt;N6</title>
<path fill="none" stroke="#a0a0a4" d="M1038.04,-213.03C1038.04,-205.31 1038.04,-195.96 1038.04,-187.3"/>
<polygon fill="#a0a0a4" stroke="#a0a0a4" points="1041.54,-187.25 1038.04,-177.25 1034.54,-187.25 1041.54,-187.25"/>
</g>
<!-- N25&#45;&gt;N30 -->
<g id="E18" class="edge edge">
<title>N25-&gt;N30</title>
<path fill="none" stroke="#a0a0a4" d="M197.84,-77.18C203.06,-74.94 208.68,-72.75 214.04,-71.07 292.09,-46.57 386.94,-30.89 438.4,-23.51"/>
<polygon fill="#a0a0a4" stroke="#a0a0a4" points="438.98,-26.97 448.4,-22.1 438.01,-20.03 438.98,-26.97"/>
</g>
<!-- N37&#45;&gt;N30 -->
<g id="E30" class="edge edge">
<title>N37-&gt;N30</title>
<path fill="none" stroke="#a0a0a4" d="M535.86,-73.63C525.18,-63.8 510.72,-50.48 498.68,-39.39"/>
<polygon fill="#a0a0a4" stroke="#a0a0a4" points="500.92,-36.69 491.19,-32.49 496.17,-41.84 500.92,-36.69"/>
</g>
<!-- N52 -->
<g id="node43" class="node node">
<title>N52</title>
<ellipse fill="#ff00ff" stroke="#000000" cx="2058.04" cy="-88.61" rx="28.22" ry="17.57"/>
<text text-anchor="middle" x="2058.04" y="-84.41" font-family="Times,serif" font-size="14.00">N52</text>
<text text-anchor="middle" x="1973.69" y="-110.34" font-family="Times,serif" font-size="14.00">use existing scheme</text>
</g>
<!-- N56 -->
<g id="node52" class="node node">
<title>N56</title>
<ellipse fill="#ff00ff" stroke="#000000" cx="2058.04" cy="-17.54" rx="28.22" ry="17.57"/>
<text text-anchor="middle" x="2058.04" y="-13.34" font-family="Times,serif" font-size="14.00">N56</text>
<text text-anchor="middle" x="1991" y="-39.27" font-family="Times,serif" font-size="14.00">select scheme</text>
</g>
<!-- N52&#45;&gt;N56 -->
<g id="E57" class="edge edge">
<title>N52-&gt;N56</title>
<path fill="none" stroke="#a0a0a4" d="M2058.04,-70.89C2058.04,-63.17 2058.04,-53.81 2058.04,-45.16"/>
<polygon fill="#a0a0a4" stroke="#a0a0a4" points="2061.54,-45.1 2058.04,-35.1 2054.54,-45.1 2061.54,-45.1"/>
</g>
<!-- N9&#45;&gt;N50 -->
<g id="E54" class="edge edge">
<title>N9-&gt;N50</title>
<path fill="none" stroke="#a0a0a4" d="M1650.7,-147.28C1634.3,-136.49 1609.45,-120.14 1590.38,-107.6"/>
<polygon fill="#a0a0a4" stroke="#a0a0a4" points="1592.1,-104.54 1581.82,-101.96 1588.25,-110.38 1592.1,-104.54"/>
</g>
<!-- N9&#45;&gt;N7 -->
<g id="E40" class="edge edge">
<title>N9-&gt;N7</title>
<path fill="none" stroke="#a0a0a4" d="M1660.09,-143.01C1655.8,-134.53 1650.39,-123.86 1645.55,-114.3"/>
<polygon fill="#a0a0a4" stroke="#a0a0a4" points="1648.59,-112.56 1640.95,-105.22 1642.34,-115.72 1648.59,-112.56"/>
</g>
<!-- N9&#45;&gt;N39 -->
<g id="E35" class="edge edge">
<title>N9-&gt;N39</title>
<path fill="none" stroke="#a0a0a4" d="M1675.98,-143.01C1680.21,-134.65 1685.53,-124.16 1690.32,-114.7"/>
<polygon fill="#a0a0a4" stroke="#a0a0a4" points="1693.48,-116.2 1694.88,-105.7 1687.24,-113.04 1693.48,-116.2"/>
</g>
<!-- N9&#45;&gt;N27 -->
<g id="E36" class="edge edge">
<title>N9-&gt;N27</title>
<path fill="none" stroke="#a0a0a4" d="M1644.4,-157.49C1585.4,-154.06 1427.36,-141.97 1301.04,-106.14 1298.76,-105.5 1296.44,-104.75 1294.12,-103.92"/>
<polygon fill="#a0a0a4" stroke="#a0a0a4" points="1295.36,-100.65 1284.77,-100.25 1292.8,-107.17 1295.36,-100.65"/>
</g>
<!-- N9&#45;&gt;N54 -->
<g id="E60" class="edge edge">
<title>N9-&gt;N54</title>
<path fill="none" stroke="#a0a0a4" d="M1685.71,-147.58C1703.17,-136.62 1730.12,-119.69 1750.41,-106.95"/>
<polygon fill="#a0a0a4" stroke="#a0a0a4" points="1752.32,-109.89 1758.93,-101.61 1748.6,-103.96 1752.32,-109.89"/>
</g>
<!-- N9&#45;&gt;N5 -->
<g id="E39" class="edge edge">
<title>N9-&gt;N5</title>
<path fill="none" stroke="#a0a0a4" d="M1689.28,-151.99C1718.14,-142.69 1771.17,-124.89 1815.04,-106.14 1816.66,-105.45 1818.31,-104.72 1819.97,-103.96"/>
<polygon fill="#a0a0a4" stroke="#a0a0a4" points="1821.87,-106.93 1829.37,-99.45 1818.84,-100.62 1821.87,-106.93"/>
</g>
<!-- N9&#45;&gt;N51 -->
<g id="E55" class="edge edge">
<title>N9-&gt;N51</title>
<path fill="none" stroke="#a0a0a4" d="M1645.49,-154.56C1605.66,-146.99 1520.48,-129.47 1451.04,-106.14 1448.79,-105.39 1446.5,-104.56 1444.2,-103.68"/>
<polygon fill="#a0a0a4" stroke="#a0a0a4" points="1445.47,-100.42 1434.89,-99.88 1442.83,-106.9 1445.47,-100.42"/>
</g>
<!-- N9&#45;&gt;N3 -->
<g id="E37" class="edge edge">
<title>N9-&gt;N3</title>
<path fill="none" stroke="#a0a0a4" d="M1690.81,-154.76C1730.18,-147.6 1813.16,-130.84 1880.04,-106.14 1881.69,-105.53 1883.37,-104.86 1885.05,-104.15"/>
<polygon fill="#a0a0a4" stroke="#a0a0a4" points="1886.89,-107.16 1894.51,-99.79 1883.96,-100.8 1886.89,-107.16"/>
</g>
<!-- N9&#45;&gt;N34 -->
<g id="E38" class="edge edge">
<title>N9-&gt;N34</title>
<path fill="none" stroke="#a0a0a4" d="M1644.89,-156.37C1594.94,-150.97 1473.64,-135.72 1376.04,-106.14 1373.77,-105.46 1371.46,-104.68 1369.15,-103.83"/>
<polygon fill="#a0a0a4" stroke="#a0a0a4" points="1370.4,-100.56 1359.81,-100.11 1367.81,-107.06 1370.4,-100.56"/>
</g>
<!-- N9&#45;&gt;N52 -->
<g id="E58" class="edge edge">
<title>N9-&gt;N52</title>
<path fill="none" stroke="#a0a0a4" d="M1691.55,-157.3C1748.77,-153.5 1899.47,-140.72 2020.04,-106.14 2022.31,-105.49 2024.63,-104.73 2026.94,-103.91"/>
<polygon fill="#a0a0a4" stroke="#a0a0a4" points="2028.27,-107.15 2036.29,-100.23 2025.71,-100.63 2028.27,-107.15"/>
</g>
<!-- N53 -->
<g id="node48" class="node node">
<title>N53</title>
<ellipse fill="#ff00ff" stroke="#000000" cx="1983.04" cy="-88.61" rx="28.22" ry="17.57"/>
<text text-anchor="middle" x="1983.04" y="-84.41" font-family="Times,serif" font-size="14.00">N53</text>
<text text-anchor="middle" x="1911.92" y="-58.47" font-family="Times,serif" font-size="14.00">save as scheme</text>
</g>
<!-- N9&#45;&gt;N53 -->
<g id="E59" class="edge edge">
<title>N9-&gt;N53</title>
<path fill="none" stroke="#a0a0a4" d="M1691.07,-156.08C1739.11,-150.27 1853.12,-134.47 1945.04,-106.14 1947.3,-105.45 1949.61,-104.66 1951.91,-103.81"/>
<polygon fill="#a0a0a4" stroke="#a0a0a4" points="1953.26,-107.04 1961.25,-100.08 1950.66,-100.54 1953.26,-107.04"/>
</g>
<!-- N33 -->
<g id="node46" class="node node">
<title>N33</title>
<ellipse fill="#ff00ff" stroke="#000000" cx="1729.04" cy="-230.75" rx="28.22" ry="17.57"/>
<text text-anchor="middle" x="1729.04" y="-226.55" font-family="Times,serif" font-size="14.00">N33</text>
<text text-anchor="middle" x="1682.8" y="-252.49" font-family="Times,serif" font-size="14.00">search</text>
</g>
<!-- N57 -->
<g id="node47" class="node node">
<title>N57</title>
<ellipse fill="#ff00ff" stroke="#000000" cx="1841.04" cy="-515.04" rx="28.22" ry="17.57"/>
<text text-anchor="middle" x="1841.04" y="-510.84" font-family="Times,serif" font-size="14.00">N57</text>
</g>
<!-- N12 -->
<g id="node49" class="node node">
<title>N12</title>
<ellipse fill="#ff00ff" stroke="#000000" cx="1263.04" cy="-372.9" rx="28.22" ry="17.57"/>
<text text-anchor="middle" x="1263.04" y="-368.7" font-family="Times,serif" font-size="14.00">N12</text>
</g>
<!-- N12&#45;&gt;N4 -->
<g id="E4" class="edge edge">
<title>N12-&gt;N4</title>
<path fill="none" stroke="#a0a0a4" d="M1263.04,-355.18C1263.04,-347.46 1263.04,-338.1 1263.04,-329.45"/>
<polygon fill="#a0a0a4" stroke="#a0a0a4" points="1266.54,-329.39 1263.04,-319.39 1259.54,-329.39 1266.54,-329.39"/>
</g>
<!-- N22&#45;&gt;N30 -->
<g id="E9" class="edge edge">
<title>N22-&gt;N30</title>
<path fill="none" stroke="#a0a0a4" d="M416.21,-73.63C426.89,-63.8 441.35,-50.48 453.39,-39.39"/>
<polygon fill="#a0a0a4" stroke="#a0a0a4" points="455.9,-41.84 460.88,-32.49 451.15,-36.69 455.9,-41.84"/>
</g>
<!-- N43&#45;&gt;N30 -->
<g id="E43" class="edge edge">
<title>N43-&gt;N30</title>
<path fill="none" stroke="#a0a0a4" d="M754.23,-77.18C749.01,-74.94 743.39,-72.75 738.04,-71.07 659.98,-46.57 565.13,-30.89 513.67,-23.51"/>
<polygon fill="#a0a0a4" stroke="#a0a0a4" points="514.06,-20.03 503.67,-22.1 513.09,-26.97 514.06,-20.03"/>
</g>
<!-- N14&#45;&gt;N13 -->
<g id="E6" class="edge edge">
<title>N14-&gt;N13</title>
<path fill="none" stroke="#a0a0a4" d="M1691.04,-426.25C1691.04,-418.53 1691.04,-409.17 1691.04,-400.52"/>
<polygon fill="#a0a0a4" stroke="#a0a0a4" points="1694.54,-400.47 1691.04,-390.47 1687.54,-400.47 1694.54,-400.47"/>
</g>
<!-- N17&#45;&gt;N20 -->
<g id="E10" class="edge edge">
<title>N17-&gt;N20</title>
<path fill="none" stroke="#a0a0a4" d="M1682.45,-284.81C1677.97,-276.44 1672.38,-266.01 1667.35,-256.62"/>
<polygon fill="#a0a0a4" stroke="#a0a0a4" points="1670.38,-254.85 1662.57,-247.69 1664.21,-258.15 1670.38,-254.85"/>
</g>
<!-- N17&#45;&gt;N33 -->
<g id="E26" class="edge edge">
<title>N17-&gt;N33</title>
<path fill="none" stroke="#a0a0a4" d="M1699.85,-284.81C1704.45,-276.44 1710.19,-266.01 1715.36,-256.62"/>
<polygon fill="#a0a0a4" stroke="#a0a0a4" points="1718.52,-258.14 1720.27,-247.69 1712.38,-254.76 1718.52,-258.14"/>
</g>
</g>
</svg>